<svg width="23" height="22" viewBox="0 0 23 22" fill="none" xmlns="http://www.w3.org/2000/svg">
<g clip-path="url(#clip0_2_69)">
<path d="M18.6725 8.57566H10.6552C9.6712 8.57566 8.87354 9.37333 8.87354 10.3573V18.3747C8.87354 19.3586 9.6712 20.1563 10.6552 20.1563H18.6725C19.6565 20.1563 20.4542 19.3586 20.4542 18.3747V10.3573C20.4542 9.37333 19.6565 8.57566 18.6725 8.57566Z" stroke="#1E1E1E" stroke-width="1.78164" stroke-linecap="round" stroke-linejoin="round"/>
<path d="M5.31027 13.9206H4.41946C3.94694 13.9206 3.49377 13.7329 3.15965 13.3987C2.82553 13.0646 2.63782 12.6115 2.63782 12.1389V4.12157C2.63782 3.64905 2.82553 3.19588 3.15965 2.86176C3.49377 2.52764 3.94694 2.33993 4.41946 2.33993H12.4368C12.9093 2.33993 13.3625 2.52764 13.6966 2.86176C14.0308 3.19588 14.2185 3.64905 14.2185 4.12157V5.01238" stroke="#1E1E1E" stroke-width="1.78164" stroke-linecap="round" stroke-linejoin="round"/>
</g>
<defs>
<clipPath id="clip0_2_69">
<rect width="21.3797" height="21.3797" fill="white" transform="translate(0.856201 0.558296)"/>
</clipPath>
</defs>
</svg>
