<svg width="23" height="22" viewBox="0 0 23 22" fill="none" xmlns="http://www.w3.org/2000/svg">
<g clip-path="url(#clip0_2_72)">
<path d="M1.74695 3.6799V9.02482H7.09186" stroke="#1E1E1E" stroke-width="1.78164" stroke-linecap="round" stroke-linejoin="round"/>
<path d="M3.9829 13.4789C4.56051 15.1184 5.65527 16.5257 7.10225 17.4888C8.54922 18.452 10.27 18.9188 12.0054 18.8189C13.7407 18.719 15.3966 18.0579 16.7235 16.9351C18.0504 15.8123 18.9765 14.2886 19.3622 12.5938C19.7479 10.8989 19.5723 9.12455 18.8619 7.53813C18.1515 5.95171 16.9448 4.63913 15.4235 3.79817C13.9023 2.95721 12.149 2.63342 10.4277 2.8756C8.70643 3.11777 7.11049 3.91278 5.88035 5.14085L1.74695 9.02482" stroke="#1E1E1E" stroke-width="1.78164" stroke-linecap="round" stroke-linejoin="round"/>
</g>
<defs>
<clipPath id="clip0_2_72">
<rect width="21.3797" height="21.3797" fill="white" transform="translate(0.856201 0.116631)"/>
</clipPath>
</defs>
</svg>
