<svg width="22" height="23" viewBox="0 0 22 23" fill="none" xmlns="http://www.w3.org/2000/svg">
<g clip-path="url(#clip0_4_29)">
<path d="M10.8412 15.9256C13.3011 15.9256 15.2953 13.9314 15.2953 11.4715C15.2953 9.01153 13.3011 7.01736 10.8412 7.01736C8.38125 7.01736 6.38708 9.01153 6.38708 11.4715C6.38708 13.9314 8.38125 15.9256 10.8412 15.9256Z" stroke="#1E1E1E" stroke-width="1.78164" stroke-linecap="round" stroke-linejoin="round"/>
<path d="M10.8412 1.67245V3.45409" stroke="#1E1E1E" stroke-width="1.78164" stroke-linecap="round" stroke-linejoin="round"/>
<path d="M10.8412 19.4888V21.2705" stroke="#1E1E1E" stroke-width="1.78164" stroke-linecap="round" stroke-linejoin="round"/>
<path d="M3.91064 4.54089L5.17561 5.80586" stroke="#1E1E1E" stroke-width="1.78164" stroke-linecap="round" stroke-linejoin="round"/>
<path d="M16.5068 17.1371L17.7718 18.402" stroke="#1E1E1E" stroke-width="1.78164" stroke-linecap="round" stroke-linejoin="round"/>
<path d="M1.04224 11.4715H2.82387" stroke="#1E1E1E" stroke-width="1.78164" stroke-linecap="round" stroke-linejoin="round"/>
<path d="M18.8585 11.4715H20.6402" stroke="#1E1E1E" stroke-width="1.78164" stroke-linecap="round" stroke-linejoin="round"/>
<path d="M3.91064 18.402L5.17561 17.1371" stroke="#1E1E1E" stroke-width="1.78164" stroke-linecap="round" stroke-linejoin="round"/>
<path d="M16.5068 5.80586L17.7718 4.54089" stroke="#1E1E1E" stroke-width="1.78164" stroke-linecap="round" stroke-linejoin="round"/>
</g>
<defs>
<clipPath id="clip0_4_29">
<rect width="21.3797" height="21.3797" fill="white" transform="translate(0.151367 0.781647)"/>
</clipPath>
</defs>
</svg>
