<svg width="113" height="44" viewBox="0 0 113 44" fill="none" xmlns="http://www.w3.org/2000/svg">
<path d="M52.4617 30.1395H59.717V32.3703H52.4617V30.1395ZM52.6701 36.3941H60.9054V38.6667H49.9598V24.0725H60.6135V26.345H52.6701V36.3941ZM68.1825 38.8126C67.1123 38.8126 66.1463 38.5763 65.2845 38.1037C64.4366 37.6173 63.7695 36.9501 63.283 36.1022C62.7965 35.2544 62.5533 34.2537 62.5533 33.1C62.5533 31.9464 62.7965 30.9456 63.283 30.0978C63.7695 29.2499 64.4366 28.5897 65.2845 28.1171C66.1463 27.6446 67.1123 27.4083 68.1825 27.4083C69.1137 27.4083 69.9477 27.6168 70.6844 28.0337C71.421 28.4368 72.0048 29.0553 72.4357 29.8893C72.8665 30.7232 73.082 31.7935 73.082 33.1C73.082 34.3926 72.8735 35.4629 72.4565 36.3107C72.0395 37.1447 71.4627 37.7702 70.726 38.1871C69.9894 38.6041 69.1415 38.8126 68.1825 38.8126ZM68.4952 36.5818C69.1207 36.5818 69.6767 36.4428 70.1631 36.1648C70.6635 35.8868 71.0596 35.4837 71.3515 34.9556C71.6573 34.4274 71.8102 33.8089 71.8102 33.1C71.8102 32.3773 71.6573 31.7587 71.3515 31.2445C71.0596 30.7163 70.6635 30.3132 70.1631 30.0352C69.6767 29.7573 69.1207 29.6183 68.4952 29.6183C67.8698 29.6183 67.3068 29.7573 66.8065 30.0352C66.32 30.3132 65.9239 30.7163 65.6181 31.2445C65.3262 31.7587 65.1803 32.3773 65.1803 33.1C65.1803 33.8089 65.3262 34.4274 65.6181 34.9556C65.9239 35.4837 66.32 35.8868 66.8065 36.1648C67.3068 36.4428 67.8698 36.5818 68.4952 36.5818ZM71.8727 38.6667V36.0397L71.977 33.0792L71.7685 30.1186V23.1968H74.3537V38.6667H71.8727ZM77.6796 38.6667V27.5334H80.2857V38.6667H77.6796ZM78.9931 25.6987C78.5066 25.6987 78.1036 25.5458 77.7839 25.24C77.4781 24.9342 77.3252 24.5659 77.3252 24.135C77.3252 23.6902 77.4781 23.3219 77.7839 23.03C78.1036 22.7242 78.5066 22.5714 78.9931 22.5714C79.4796 22.5714 79.8757 22.7173 80.1815 23.0092C80.5012 23.2872 80.661 23.6416 80.661 24.0725C80.661 24.5311 80.5081 24.9203 80.2023 25.24C79.8966 25.5458 79.4935 25.6987 78.9931 25.6987ZM87.7926 38.8126C86.5695 38.8126 85.6243 38.4999 84.9572 37.8744C84.29 37.235 83.9564 36.2968 83.9564 35.0598V25.0732H86.5625V34.9973C86.5625 35.5254 86.6946 35.9355 86.9587 36.2273C87.2366 36.5192 87.6189 36.6652 88.1053 36.6652C88.6891 36.6652 89.1756 36.5123 89.5648 36.2065L90.2945 38.062C89.9887 38.3122 89.6134 38.4999 89.1686 38.625C88.7239 38.7501 88.2652 38.8126 87.7926 38.8126ZM82.1217 29.7017V27.6168H89.5439V29.7017H82.1217Z" fill="#1E1E1E"/>
<path d="M49.9598 20V5.40581H55.9643C57.2569 5.40581 58.3619 5.6143 59.2792 6.03128C60.2105 6.44825 60.9263 7.04592 61.4267 7.82428C61.927 8.60263 62.1772 9.52693 62.1772 10.5972C62.1772 11.6674 61.927 12.5917 61.4267 13.3701C60.9263 14.1484 60.2105 14.7461 59.2792 15.1631C58.3619 15.58 57.2569 15.7885 55.9643 15.7885H51.4609L52.6701 14.5168V20H49.9598ZM52.6701 14.8086L51.4609 13.4952H55.8392C57.0345 13.4952 57.931 13.245 58.5287 12.7446C59.1402 12.2303 59.446 11.5145 59.446 10.5972C59.446 9.66593 59.1402 8.95012 58.5287 8.44974C57.931 7.94937 57.0345 7.69918 55.8392 7.69918H51.4609L52.6701 6.36486V14.8086ZM71.1544 8.74163C72.044 8.74163 72.8362 8.91537 73.5312 9.26285C74.2401 9.61033 74.796 10.1454 75.1991 10.8682C75.6022 11.5771 75.8037 12.4944 75.8037 13.6203V20H73.1976V13.9538C73.1976 12.967 72.9613 12.2303 72.4888 11.7439C72.0301 11.2574 71.3838 11.0141 70.5498 11.0141C69.9382 11.0141 69.3962 11.1392 68.9236 11.3894C68.451 11.6396 68.0827 12.0149 67.8186 12.5153C67.5684 13.0017 67.4433 13.6203 67.4433 14.3708V20H64.8372V4.53016H67.4433V11.869L66.8804 10.9516C67.2696 10.2427 67.8325 9.70067 68.5692 9.32539C69.3197 8.93622 70.1815 8.74163 71.1544 8.74163ZM84.1338 20.1459C82.9941 20.1459 81.9794 19.9027 81.0899 19.4162C80.2003 18.9159 79.4984 18.2348 78.9841 17.373C78.4699 16.5113 78.2127 15.5314 78.2127 14.4334C78.2127 13.3214 78.4699 12.3415 78.9841 11.4937C79.4984 10.6319 80.2003 9.95781 81.0899 9.47134C81.9794 8.98486 82.9941 8.74163 84.1338 8.74163C85.2874 8.74163 86.309 8.98486 87.1986 9.47134C88.102 9.95781 88.8039 10.625 89.3043 11.4728C89.8186 12.3207 90.0757 13.3075 90.0757 14.4334C90.0757 15.5314 89.8186 16.5113 89.3043 17.373C88.8039 18.2348 88.102 18.9159 87.1986 19.4162C86.309 19.9027 85.2874 20.1459 84.1338 20.1459ZM84.1338 17.9151C84.7732 17.9151 85.343 17.7761 85.8434 17.4981C86.3438 17.2202 86.733 16.8171 87.0109 16.2889C87.3028 15.7607 87.4488 15.1422 87.4488 14.4334C87.4488 13.7106 87.3028 13.0921 87.0109 12.5778C86.733 12.0496 86.3438 11.6466 85.8434 11.3686C85.343 11.0906 84.7801 10.9516 84.1547 10.9516C83.5153 10.9516 82.9454 11.0906 82.4451 11.3686C81.9586 11.6466 81.5694 12.0496 81.2775 12.5778C80.9856 13.0921 80.8397 13.7106 80.8397 14.4334C80.8397 15.1422 80.9856 15.7607 81.2775 16.2889C81.5694 16.8171 81.9586 17.2202 82.4451 17.4981C82.9454 17.7761 83.5083 17.9151 84.1338 17.9151ZM96.7584 20.1459C95.5353 20.1459 94.5901 19.8332 93.923 19.2077C93.2558 18.5684 92.9222 17.6302 92.9222 16.3932V6.40656H95.5283V16.3306C95.5283 16.8588 95.6604 17.2688 95.9245 17.5607C96.2025 17.8526 96.5847 17.9985 97.0712 17.9985C97.6549 17.9985 98.1414 17.8456 98.5306 17.5398L99.2603 19.3954C98.9545 19.6456 98.5792 19.8332 98.1345 19.9583C97.6897 20.0834 97.231 20.1459 96.7584 20.1459ZM91.0875 11.035V8.95011H98.5097V11.035H91.0875ZM106.041 20.1459C104.902 20.1459 103.887 19.9027 102.997 19.4162C102.108 18.9159 101.406 18.2348 100.892 17.373C100.377 16.5113 100.12 15.5314 100.12 14.4334C100.12 13.3214 100.377 12.3415 100.892 11.4937C101.406 10.6319 102.108 9.95781 102.997 9.47134C103.887 8.98486 104.902 8.74163 106.041 8.74163C107.195 8.74163 108.217 8.98486 109.106 9.47134C110.01 9.95781 110.712 10.625 111.212 11.4728C111.726 12.3207 111.983 13.3075 111.983 14.4334C111.983 15.5314 111.726 16.5113 111.212 17.373C110.712 18.2348 110.01 18.9159 109.106 19.4162C108.217 19.9027 107.195 20.1459 106.041 20.1459ZM106.041 17.9151C106.681 17.9151 107.251 17.7761 107.751 17.4981C108.251 17.2202 108.641 16.8171 108.919 16.2889C109.21 15.7607 109.356 15.1422 109.356 14.4334C109.356 13.7106 109.21 13.0921 108.919 12.5778C108.641 12.0496 108.251 11.6466 107.751 11.3686C107.251 11.0906 106.688 10.9516 106.062 10.9516C105.423 10.9516 104.853 11.0906 104.353 11.3686C103.866 11.6466 103.477 12.0496 103.185 12.5778C102.893 13.0921 102.747 13.7106 102.747 14.4334C102.747 15.1422 102.893 15.7607 103.185 16.2889C103.477 16.8171 103.866 17.2202 104.353 17.4981C104.853 17.7761 105.416 17.9151 106.041 17.9151Z" fill="#1E1E1E"/>
<path fill-rule="evenodd" clip-rule="evenodd" d="M37.7058 16.1342C37.2398 16.1342 36.7928 16.3194 36.4633 16.6489L21.8826 31.2296L21.0543 34.543L24.3677 33.7147L38.9484 19.134C39.2779 18.8045 39.4631 18.3575 39.4631 17.8915C39.4631 17.4254 39.2779 16.9785 38.9484 16.6489C38.6188 16.3194 38.1719 16.1342 37.7058 16.1342ZM34.247 14.4327C35.1644 13.5153 36.4085 13 37.7058 13C39.0031 13 40.2473 13.5153 41.1646 14.4327C42.0819 15.35 42.5973 16.5942 42.5973 17.8915C42.5973 19.1888 42.0819 20.4329 41.1646 21.3503L26.277 36.2378C26.0762 36.4387 25.8245 36.5812 25.549 36.65L19.2805 38.2172C18.7465 38.3507 18.1816 38.1942 17.7923 37.805C17.4031 37.4157 17.2466 36.8508 17.3801 36.3168L18.9473 30.0483C19.0161 29.7728 19.1586 29.5211 19.3595 29.3203L34.247 14.4327Z" fill="#1E1E1E"/>
<path fill-rule="evenodd" clip-rule="evenodd" d="M16 15.6667C13.7908 15.6667 12 17.4575 12 19.6667C12 21.8758 13.7908 23.6667 16 23.6667C18.2091 23.6667 20 21.8758 20 19.6667C20 17.4575 18.2091 15.6667 16 15.6667ZM9.33331 19.6667C9.33331 15.9848 12.3181 13 16 13C19.6819 13 22.6666 15.9848 22.6666 19.6667C22.6666 23.3486 19.6819 26.3333 16 26.3333C12.3181 26.3333 9.33331 23.3486 9.33331 19.6667Z" fill="#1E1E1E"/>
<path fill-rule="evenodd" clip-rule="evenodd" d="M12 5C11.5542 5 11.1379 5.2228 10.8906 5.59373L8.61975 9H4C2.93913 9 1.92172 9.42143 1.17157 10.1716C0.421427 10.9217 0 11.9391 0 13V27.6667C0 28.7275 0.421428 29.7449 1.17157 30.4951C1.92172 31.2452 2.93913 31.6667 4 31.6667H14.0629L14.2146 31.06C14.3091 30.6819 14.5046 30.3365 14.7802 30.061L15.8412 29H4C3.64638 29 3.30724 28.8595 3.05719 28.6095C2.80714 28.3594 2.66667 28.0203 2.66667 27.6667V13C2.66667 12.6464 2.80714 12.3072 3.05719 12.0572C3.30724 11.8071 3.64638 11.6667 4 11.6667H9.33333C9.77914 11.6667 10.1954 11.4439 10.4427 11.0729L12.7136 7.66667H19.2864L21.5573 11.0729C21.8046 11.4439 22.2209 11.6667 22.6667 11.6667H28C28.3536 11.6667 28.6928 11.8071 28.9428 12.0572C29.1929 12.3072 29.3333 12.6464 29.3333 13V15.5079L31.997 12.8442C31.9579 11.84 31.5418 10.8849 30.8284 10.1716C30.0783 9.42143 29.0609 9 28 9H23.3802L21.1094 5.59373C20.8621 5.2228 20.4458 5 20 5H12Z" fill="#1E1E1E"/>
</svg>
